<svg width="32" height="28" viewBox="0 0 32 28" fill="none" xmlns="http://www.w3.org/2000/svg">
<path fill-rule="evenodd" clip-rule="evenodd" d="M3.99254e-07 14C3.99254e-07 14.5303 0.210689 15.039 0.58572 15.414C0.960751 15.789 1.4694 15.9996 1.99978 15.9996H25.1692L16.5821 24.5821C16.3962 24.768 16.2487 24.9887 16.1481 25.2316C16.0475 25.4746 15.9957 25.7349 15.9957 25.9978C15.9957 26.2608 16.0475 26.5211 16.1481 26.764C16.2487 27.0069 16.3962 27.2277 16.5821 27.4136C16.7681 27.5995 16.9888 27.747 17.2317 27.8476C17.4747 27.9482 17.735 28 17.998 28C18.2609 28 18.5213 27.9482 18.7642 27.8476C19.0072 27.747 19.2279 27.5995 19.4138 27.4136L31.4125 15.4157C31.5987 15.23 31.7465 15.0093 31.8473 14.7664C31.9481 14.5235 32 14.263 32 14C32 13.737 31.9481 13.4765 31.8473 13.2336C31.7465 12.9907 31.5987 12.77 31.4125 12.5843L19.4138 0.586421C19.0383 0.210942 18.529 0 17.998 0C17.4669 0 16.9577 0.210942 16.5821 0.586421C16.2066 0.9619 15.9957 1.47116 15.9957 2.00217C15.9957 2.53317 16.2066 3.04243 16.5821 3.41791L25.1692 12.0004H1.99978C1.4694 12.0004 0.960751 12.211 0.58572 12.586C0.210689 12.961 3.99254e-07 13.4697 3.99254e-07 14Z" fill="white"/>
</svg>
